# xmcd CD database file
#
# Track frame offsets:
#	165
#	15586
#	30470
#	47304
#	63036
#	78391
#	85665
#	93339
#	108169
#	115223
#	129987
#	149404
#
# Disc length: 2269 seconds
#
# Revision: 0
# Processed by: cddbd v1.5PL3 Copyright (c) Steve Scherf et al.
# Submitted via: CDex 1.50
#
DISCID=8408db0c
DTITLE=ゆめりあなひとたち - ゆめりあ Fan☆FunCD DISC1
DYEAR=1900
DGENRE=Anime
TTITLE0=バースデイ・16
TTITLE1=いつでも一緒
TTITLE2=おんなじ空の下
TTITLE3=嗚呼、振り回され人生
TTITLE4=CUTE GIRL
TTITLE5=ゆ・る・ゆ・る
TTITLE6=底抜けHappy Life
TTITLE7=気持ちと言葉
TTITLE8=ねねこはねねこ
TTITLE9=フェイドゥム来襲
TTITLE10=Power to a victory
TTITLE11=大切な想い
EXTD=
EXTT0=
EXTT1=
EXTT2=
EXTT3=
EXTT4=
EXTT5=
EXTT6=
EXTT7=
EXTT8=
EXTT9=
EXTT10=
EXTT11=
PLAYORDER=
